HIERARCHY
ROOT Hips
{
	OFFSET -0.001795 -0.223333 0.028219
	CHANNELS 6 Xposition Yposition Zposition Zrotation Yrotation Xrotation 
	JOINT LeftUpLeg
	{
		OFFSET 0.069520 -0.091406 -0.006815
		CHANNELS 3 Zrotation Yrotation Xrotation
		JOINT LeftLeg
		{
			OFFSET 0.034277 -0.375199 -0.004496
			CHANNELS 3 Zrotation Yrotation Xrotation
			JOINT LeftFoot
			{
				OFFSET -0.013596 -0.397961 -0.043693
				CHANNELS 3 Zrotation Yrotation Xrotation
				JOINT LeftToe
				{
					OFFSET 0.026358 -0.055791 0.119288
					CHANNELS 3 Zrotation Yrotation Xrotation
					End Site
					{
						OFFSET 0.000000 0.000000 0.000000
					}
				}
			}
		}
	}
	JOINT RightUpLeg
	{
		OFFSET -0.067670 -0.090522 -0.004320
		CHANNELS 3 Zrotation Yrotation Xrotation
		JOINT RightLeg
		{
			OFFSET -0.038290 -0.382569 -0.008850
			CHANNELS 3 Zrotation Yrotation Xrotation
			JOINT RightFoot
			{
				OFFSET 0.015774 -0.398415 -0.042312
				CHANNELS 3 Zrotation Yrotation Xrotation
				JOINT RightToe
				{
					OFFSET -0.025372 -0.048144 0.123348
					CHANNELS 3 Zrotation Yrotation Xrotation
					End Site
					{
						OFFSET 0.000000 0.000000 0.000000
					}
				}
			}
		}
	}
	JOINT Spine
	{
		OFFSET -0.002533 0.108963 -0.026696
		CHANNELS 3 Zrotation Yrotation Xrotation
		JOINT Spine1
		{
			OFFSET 0.005487 0.135180 0.001092
			CHANNELS 3 Zrotation Yrotation Xrotation
			JOINT Spine2
			{
				OFFSET 0.001457 0.052922 0.025425
				CHANNELS 3 Zrotation Yrotation Xrotation
				JOINT Neck
				{
					OFFSET -0.002778 0.213870 -0.042857
					CHANNELS 3 Zrotation Yrotation Xrotation
					JOINT Head
					{
						OFFSET 0.005152 0.064970 0.051349
						CHANNELS 3 Zrotation Yrotation Xrotation
						End Site
						{
							OFFSET 0.000000 0.000000 0.000000
						}
					}
				}
				JOINT LeftShoulder
				{
					OFFSET 0.078845 0.121749 -0.034090
					CHANNELS 3 Zrotation Yrotation Xrotation
					JOINT LeftArm
					{
						OFFSET 0.090977 0.030469 -0.008868
						CHANNELS 3 Zrotation Yrotation Xrotation
						JOINT LeftForeArm
						{
							OFFSET 0.259612 -0.012772 -0.027456
							CHANNELS 3 Zrotation Yrotation Xrotation
							JOINT LeftHand
							{
								OFFSET 0.249234 0.008986 -0.001171
								CHANNELS 3 Zrotation Yrotation Xrotation
								End Site
								{
									OFFSET 0.000000 0.000000 0.000000
								}
							}
						}
					}
				}
				JOINT RightShoulder
				{
					OFFSET -0.081759 0.118833 -0.038615
					CHANNELS 3 Zrotation Yrotation Xrotation
					JOINT RightArm
					{
						OFFSET -0.096012 0.032551 -0.009143
						CHANNELS 3 Zrotation Yrotation Xrotation
						JOINT RightForeArm
						{
							OFFSET -0.253742 -0.013329 -0.021401
							CHANNELS 3 Zrotation Yrotation Xrotation
							JOINT RightHand
							{
								OFFSET -0.255298 0.007772 -0.005559
								CHANNELS 3 Zrotation Yrotation Xrotation
								End Site
								{
									OFFSET 0.000000 0.000000 0.000000
								}
							}
						}
					}
				}
			}
		}
	}
}
MOTION
Frames: 12
Frame Time: 0.050000
0.808541 0.934929 0.283208 -1.106020 -5.635193 1.444895 6.007633 -0.323424 -8.636254 3.517109 -1.247250 15.516654 -2.117513 -1.943543 5.786152 0.000000 0.000000 0.000000 2.391243 1.769533 -14.625841 -22.479754 4.598469 8.284033 103.426456 33.835872 103.311751 0.000000 0.000000 0.000000 4.303855 -1.269372 17.286023 -2.528932 1.153683 -27.460972 -2.518199 6.833264 32.570975 14.520541 -6.990717 -24.832710 0.000000 0.000000 0.000000 -20.983025 -6.460392 1.881651 -46.919165 -7.521538 -5.346561 -10.124439 -27.024352 3.673570 0.000000 0.000000 0.000000 28.757107 -8.859106 -6.544483 53.618080 9.539495 -4.283662 1.299202 27.992994 2.045956 0.000000 0.000000 0.000000 
0.828565 0.934875 0.277250 -1.371548 -12.193609 1.564559 5.739382 -0.170093 -6.663602 1.147627 -0.404222 13.595575 0.806731 2.959575 4.961504 0.000000 0.000000 0.000000 3.286541 2.160621 -16.219481 -18.469581 5.201235 13.682229 69.343774 28.884371 84.194655 0.000000 0.000000 0.000000 2.604039 -0.837533 18.270678 -0.691328 0.742578 -28.702231 -3.379815 6.636564 33.053061 15.149697 -8.036008 -25.147202 0.000000 0.000000 0.000000 -19.757531 -5.645359 2.863438 -47.475496 -7.899101 -5.753547 -8.477172 -25.555511 3.325621 0.000000 0.000000 0.000000 27.633559 -7.738345 -7.262013 55.890494 7.640375 -4.939078 0.398368 26.677518 1.485354 0.000000 0.000000 0.000000 
0.844075 0.937006 0.271614 -1.864147 -18.129941 1.759651 5.839644 -0.027911 -5.556531 -0.912457 0.283759 12.528813 3.214212 7.373656 5.775957 0.000000 0.000000 0.000000 3.557555 2.354725 -16.845893 -12.987419 5.454141 20.265141 27.105803 18.234356 40.694205 0.000000 0.000000 0.000000 2.586738 -0.654847 18.396238 -2.102588 0.947850 -28.446521 -3.331064 5.954255 32.544943 15.624997 -9.060553 -24.680038 0.000000 0.000000 0.000000 -18.116481 -6.073949 4.194322 -48.382387 -8.617068 -5.728929 -4.534458 -24.658023 2.479677 0.000000 0.000000 0.000000 28.480893 -6.662037 -8.545814 56.341517 5.365599 -5.520134 0.764781 25.114933 1.168240 0.000000 0.000000 0.000000 
0.855828 0.941650 0.265985 -3.072846 -23.751749 2.130289 5.509988 0.119892 -3.011858 -0.627673 0.229982 8.939350 5.653904 11.664495 7.647682 0.000000 0.000000 0.000000 4.127289 2.590458 -17.434787 -3.232824 4.087029 26.802364 1.402131 -6.972025 14.605667 0.000000 0.000000 0.000000 2.646845 -0.500482 18.075335 -2.539109 0.951775 -28.030647 -2.678513 5.706372 31.949480 15.302040 -9.525557 -23.724110 0.000000 0.000000 0.000000 -16.692974 -5.738385 4.746248 -49.582918 -8.782594 -5.688510 -4.356223 -25.486073 2.674627 0.000000 0.000000 0.000000 28.242548 -5.532841 -9.430129 55.289869 3.247838 -5.842551 2.842001 24.263910 1.244582 0.000000 0.000000 0.000000 
0.863924 0.944842 0.260927 -3.035248 -29.489220 3.210921 5.409372 0.225777 -2.399097 -2.616952 0.720453 6.517214 8.149770 15.513411 10.317751 0.000000 0.000000 0.000000 2.953741 2.513135 -17.452128 4.502705 2.380639 27.996660 -6.187416 -16.212784 4.282084 0.000000 0.000000 0.000000 1.433819 -0.145877 17.741230 -1.361899 0.642096 -28.237161 -2.987566 5.483463 31.425528 14.726728 -9.548961 -24.090185 0.000000 0.000000 0.000000 -16.706162 -5.056942 5.274441 -49.633962 -9.073555 -5.626308 -3.661307 -25.239188 2.580544 0.000000 0.000000 0.000000 26.595823 -3.617941 -9.356632 56.716294 1.042520 -6.752210 3.013389 24.849284 1.038790 0.000000 0.000000 0.000000 
0.868690 0.946274 0.256456 -3.536246 -34.815280 3.761793 4.849215 0.323357 -1.022412 -2.566615 0.689403 4.326602 10.768320 19.316397 12.630856 0.000000 0.000000 0.000000 2.750053 2.439593 -17.033213 5.494520 2.370702 26.858827 -5.245704 -12.842969 1.627224 0.000000 0.000000 0.000000 1.505861 0.066323 18.687589 -1.752705 0.773810 -29.322853 -2.471317 4.871232 30.872657 14.953525 -10.061942 -24.324771 0.000000 0.000000 0.000000 -16.733515 -4.613618 5.810659 -49.638099 -8.702103 -5.647276 -3.344917 -25.082769 2.496302 0.000000 0.000000 0.000000 26.612173 -3.301236 -10.791601 56.125987 -1.731125 -7.488774 3.817684 26.745544 0.958949 0.000000 0.000000 0.000000 
0.869860 0.947471 0.252652 -3.776360 -39.413805 4.812094 4.915147 0.427277 -0.601870 -3.569099 0.915444 2.621361 13.077438 22.180971 15.130590 0.000000 0.000000 0.000000 2.074725 2.396521 -16.981267 7.568557 2.134386 26.016474 -5.146346 -10.458339 -1.156718 0.000000 0.000000 0.000000 1.900258 0.042276 17.491125 -2.025202 0.718660 -28.790621 -3.052880 4.267543 30.317113 14.845418 -10.399209 -24.041830 0.000000 0.000000 0.000000 -16.177216 -4.116865 6.174092 -50.453358 -8.310274 -5.613109 -2.358708 -26.664648 2.556793 0.000000 0.000000 0.000000 26.268967 -2.415816 -11.818485 57.063308 -4.588106 -8.582635 4.117072 29.168799 0.709278 0.000000 0.000000 0.000000 
0.868007 0.947706 0.249089 -3.879917 -44.821415 5.232665 4.792026 0.584491 0.492934 -4.515383 1.170635 1.216569 15.877462 25.444200 18.063864 0.000000 0.000000 0.000000 1.335590 2.104537 -15.799107 8.261296 1.971525 23.327966 -3.627774 -5.339993 -2.408060 0.000000 0.000000 0.000000 2.588811 0.029485 16.920320 -1.602079 0.524318 -28.370141 -3.719062 5.010024 29.932003 15.121367 -10.814868 -24.122369 0.000000 0.000000 0.000000 -17.135137 -4.458643 7.337195 -49.752684 -9.248241 -5.401391 -1.918605 -26.176832 2.358406 0.000000 0.000000 0.000000 26.954794 -2.047106 -13.312967 56.627876 -8.149151 -9.688998 5.367669 31.036894 0.732222 0.000000 0.000000 0.000000 
0.862895 0.948066 0.245293 -3.920295 -49.549641 6.031052 4.435708 0.624532 0.398139 -4.755533 1.329345 1.119133 18.699427 28.164044 21.347891 0.000000 0.000000 0.000000 1.056171 1.875813 -14.782748 7.686249 1.826578 20.108418 -1.565918 0.529151 -2.731867 0.000000 0.000000 0.000000 3.553187 -0.083088 15.886186 -1.855604 0.455680 -27.920520 -4.465265 4.997188 29.615807 15.101679 -11.078240 -24.236923 0.000000 0.000000 0.000000 -15.824231 -4.235327 7.466236 -51.746500 -10.488055 -4.455750 -0.703189 -27.179884 2.247442 0.000000 0.000000 0.000000 27.084992 -1.833241 -14.937311 57.079581 -10.755030 -10.611538 5.934735 31.810773 0.512711 0.000000 0.000000 0.000000 
0.854523 0.947774 0.240782 -4.378205 -54.712778 7.035240 4.595172 0.737393 0.008404 -5.364907 1.745293 2.162673 21.893210 30.807308 25.099745 0.000000 0.000000 0.000000 1.577158 1.515162 -13.069248 6.353583 1.591138 16.251385 0.758994 7.025197 -2.743470 0.000000 0.000000 0.000000 4.511685 -0.114999 15.636511 -1.586922 0.410161 -28.381681 -5.409938 5.377453 29.979635 15.671829 -11.444230 -25.844048 0.000000 0.000000 0.000000 -15.920498 -3.922624 8.057160 -52.142500 -12.169664 -3.723907 0.272382 -27.197262 2.023443 0.000000 0.000000 0.000000 27.223172 -1.785063 -16.600660 56.658900 -13.207332 -11.377591 7.836750 31.562995 0.726090 0.000000 0.000000 0.000000 
0.842724 0.947431 0.235742 -4.410605 -59.135268 7.867173 4.401094 0.783821 -0.435788 -5.512277 2.059801 3.135356 24.818057 32.582413 29.130882 0.000000 0.000000 0.000000 2.087532 1.390401 -12.546892 5.425129 1.562556 14.575205 2.349970 11.601211 -2.645923 0.000000 0.000000 0.000000 5.197414 -0.131394 15.235748 -1.678645 0.372471 -28.364165 -5.944290 4.982473 29.596095 15.365138 -11.643559 -25.519705 0.000000 0.000000 0.000000 -16.074474 -3.388504 8.488872 -52.020387 -14.146903 -2.664017 1.050611 -28.053128 1.906953 0.000000 0.000000 0.000000 27.532672 -1.983275 -18.584330 56.689877 -15.769785 -12.247761 9.569874 32.274909 0.876165 0.000000 0.000000 0.000000 
0.827896 0.945787 0.230191 -4.755544 -63.344672 8.727761 5.609781 1.100120 -2.249084 -7.064094 3.755210 7.874483 25.590262 32.057661 30.974479 0.000000 0.000000 0.000000 2.346955 1.271797 -12.058506 5.496871 1.595224 13.773158 3.747394 15.728139 -2.535227 0.000000 0.000000 0.000000 5.646615 -0.094125 15.188559 -1.876150 0.122752 -27.016428 -6.147926 3.622082 28.701122 13.602527 -11.064329 -24.919093 0.000000 0.000000 0.000000 -16.461762 -1.583382 8.417180 -52.707756 -16.159093 -1.472670 1.705283 -27.625987 1.755803 0.000000 0.000000 0.000000 26.684078 -1.220559 -19.446628 56.894510 -16.993370 -12.677976 10.717047 32.293427 0.825684 0.000000 0.000000 0.000000 
